<svg xmlns="http://www.w3.org/2000/svg" xmlns:xlink="http://www.w3.org/1999/xlink" width="500" zoomAndPan="magnify" viewBox="0 0 375 374.999991" height="500" preserveAspectRatio="xMidYMid meet" version="1.0"><defs><g/><clipPath id="29821f94f6"><path d="M 11.019531 192.324219 L 18.375 192.324219 L 18.375 199.679688 L 11.019531 199.679688 Z M 11.019531 192.324219 " clip-rule="nonzero"/></clipPath><clipPath id="743f28878a"><path d="M 14.699219 192.324219 C 12.667969 192.324219 11.019531 193.972656 11.019531 196.003906 C 11.019531 198.035156 12.667969 199.679688 14.699219 199.679688 C 16.730469 199.679688 18.375 198.035156 18.375 196.003906 C 18.375 193.972656 16.730469 192.324219 14.699219 192.324219 Z M 14.699219 192.324219 " clip-rule="nonzero"/></clipPath><clipPath id="c2754dc81f"><path d="M 0.0195312 0.324219 L 7.375 0.324219 L 7.375 7.679688 L 0.0195312 7.679688 Z M 0.0195312 0.324219 " clip-rule="nonzero"/></clipPath><clipPath id="9b914a4597"><path d="M 3.699219 0.324219 C 1.667969 0.324219 0.0195312 1.972656 0.0195312 4.003906 C 0.0195312 6.035156 1.667969 7.679688 3.699219 7.679688 C 5.730469 7.679688 7.375 6.035156 7.375 4.003906 C 7.375 1.972656 5.730469 0.324219 3.699219 0.324219 Z M 3.699219 0.324219 " clip-rule="nonzero"/></clipPath><clipPath id="2f77e09a19"><rect x="0" width="8" y="0" height="8"/></clipPath><clipPath id="3676c56546"><path d="M 21.226562 201.566406 L 28.582031 201.566406 L 28.582031 208.921875 L 21.226562 208.921875 Z M 21.226562 201.566406 " clip-rule="nonzero"/></clipPath><clipPath id="28896d3a74"><path d="M 24.902344 201.566406 C 22.871094 201.566406 21.226562 203.214844 21.226562 205.246094 C 21.226562 207.277344 22.871094 208.921875 24.902344 208.921875 C 26.933594 208.921875 28.582031 207.277344 28.582031 205.246094 C 28.582031 203.214844 26.933594 201.566406 24.902344 201.566406 Z M 24.902344 201.566406 " clip-rule="nonzero"/></clipPath><clipPath id="1124bc4625"><path d="M 0.226562 0.566406 L 7.582031 0.566406 L 7.582031 7.921875 L 0.226562 7.921875 Z M 0.226562 0.566406 " clip-rule="nonzero"/></clipPath><clipPath id="8a14feabd0"><path d="M 3.902344 0.566406 C 1.871094 0.566406 0.226562 2.214844 0.226562 4.246094 C 0.226562 6.277344 1.871094 7.921875 3.902344 7.921875 C 5.933594 7.921875 7.582031 6.277344 7.582031 4.246094 C 7.582031 2.214844 5.933594 0.566406 3.902344 0.566406 Z M 3.902344 0.566406 " clip-rule="nonzero"/></clipPath><clipPath id="34e5c307df"><rect x="0" width="8" y="0" height="8"/></clipPath><clipPath id="6d2482dfd4"><path d="M 34 0.398438 L 184.433594 0.398438 L 184.433594 164 L 34 164 Z M 34 0.398438 " clip-rule="nonzero"/></clipPath><clipPath id="8cc0f66c1f"><path d="M 0.816406 31 L 151 31 L 151 194.558594 L 0.816406 194.558594 Z M 0.816406 31 " clip-rule="nonzero"/></clipPath><clipPath id="eb396b9b24"><path d="M 128.804688 5.453125 L 147.765625 5.453125 L 147.765625 24.417969 L 128.804688 24.417969 Z M 128.804688 5.453125 " clip-rule="nonzero"/></clipPath><clipPath id="3ae0998f84"><path d="M 138.285156 5.453125 C 133.046875 5.453125 128.804688 9.699219 128.804688 14.9375 C 128.804688 20.171875 133.046875 24.417969 138.285156 24.417969 C 143.519531 24.417969 147.765625 20.171875 147.765625 14.9375 C 147.765625 9.699219 143.519531 5.453125 138.285156 5.453125 Z M 138.285156 5.453125 " clip-rule="nonzero"/></clipPath><clipPath id="c5a22bc9f4"><path d="M 0.804688 0.453125 L 19.765625 0.453125 L 19.765625 19.417969 L 0.804688 19.417969 Z M 0.804688 0.453125 " clip-rule="nonzero"/></clipPath><clipPath id="af8a615c0f"><path d="M 10.285156 0.453125 C 5.046875 0.453125 0.804688 4.699219 0.804688 9.9375 C 0.804688 15.171875 5.046875 19.417969 10.285156 19.417969 C 15.519531 19.417969 19.765625 15.171875 19.765625 9.9375 C 19.765625 4.699219 15.519531 0.453125 10.285156 0.453125 Z M 10.285156 0.453125 " clip-rule="nonzero"/></clipPath><clipPath id="cd80e536f1"><rect x="0" width="20" y="0" height="20"/></clipPath><clipPath id="3643b1685b"><path d="M 152.871094 25.753906 L 171.835938 25.753906 L 171.835938 44.714844 L 152.871094 44.714844 Z M 152.871094 25.753906 " clip-rule="nonzero"/></clipPath><clipPath id="4e64c842df"><path d="M 162.351562 25.753906 C 157.117188 25.753906 152.871094 30 152.871094 35.234375 C 152.871094 40.472656 157.117188 44.714844 162.351562 44.714844 C 167.589844 44.714844 171.835938 40.472656 171.835938 35.234375 C 171.835938 30 167.589844 25.753906 162.351562 25.753906 Z M 162.351562 25.753906 " clip-rule="nonzero"/></clipPath><clipPath id="e07e25c4ca"><path d="M 0.871094 0.753906 L 19.835938 0.753906 L 19.835938 19.714844 L 0.871094 19.714844 Z M 0.871094 0.753906 " clip-rule="nonzero"/></clipPath><clipPath id="d8e996f79f"><path d="M 10.351562 0.753906 C 5.117188 0.753906 0.871094 5 0.871094 10.234375 C 0.871094 15.472656 5.117188 19.714844 10.351562 19.714844 C 15.589844 19.714844 19.835938 15.472656 19.835938 10.234375 C 19.835938 5 15.589844 0.753906 10.351562 0.753906 Z M 10.351562 0.753906 " clip-rule="nonzero"/></clipPath><clipPath id="76236226c9"><rect x="0" width="20" y="0" height="20"/></clipPath><clipPath id="0410155182"><path d="M 8.476562 145.257812 L 27.441406 145.257812 L 27.441406 164.222656 L 8.476562 164.222656 Z M 8.476562 145.257812 " clip-rule="nonzero"/></clipPath><clipPath id="906e9d1c97"><path d="M 17.957031 145.257812 C 12.722656 145.257812 8.476562 149.503906 8.476562 154.742188 C 8.476562 159.976562 12.722656 164.222656 17.957031 164.222656 C 23.195312 164.222656 27.441406 159.976562 27.441406 154.742188 C 27.441406 149.503906 23.195312 145.257812 17.957031 145.257812 Z M 17.957031 145.257812 " clip-rule="nonzero"/></clipPath><clipPath id="bc008d3adc"><path d="M 0.476562 0.257812 L 19.441406 0.257812 L 19.441406 19.222656 L 0.476562 19.222656 Z M 0.476562 0.257812 " clip-rule="nonzero"/></clipPath><clipPath id="76c1bd682d"><path d="M 9.957031 0.257812 C 4.722656 0.257812 0.476562 4.503906 0.476562 9.742188 C 0.476562 14.976562 4.722656 19.222656 9.957031 19.222656 C 15.195312 19.222656 19.441406 14.976562 19.441406 9.742188 C 19.441406 4.503906 15.195312 0.257812 9.957031 0.257812 Z M 9.957031 0.257812 " clip-rule="nonzero"/></clipPath><clipPath id="ddee4db1d9"><rect x="0" width="20" y="0" height="20"/></clipPath><clipPath id="9dd2d2c735"><path d="M 34.789062 169.089844 L 53.75 169.089844 L 53.75 188.054688 L 34.789062 188.054688 Z M 34.789062 169.089844 " clip-rule="nonzero"/></clipPath><clipPath id="15fee0c5b9"><path d="M 44.269531 169.089844 C 39.03125 169.089844 34.789062 173.335938 34.789062 178.570312 C 34.789062 183.808594 39.03125 188.054688 44.269531 188.054688 C 49.507812 188.054688 53.75 183.808594 53.75 178.570312 C 53.75 173.335938 49.507812 169.089844 44.269531 169.089844 Z M 44.269531 169.089844 " clip-rule="nonzero"/></clipPath><clipPath id="3b69b4a7be"><path d="M 0.789062 0.0898438 L 19.75 0.0898438 L 19.75 19.054688 L 0.789062 19.054688 Z M 0.789062 0.0898438 " clip-rule="nonzero"/></clipPath><clipPath id="454348a7d2"><path d="M 10.269531 0.0898438 C 5.03125 0.0898438 0.789062 4.335938 0.789062 9.570312 C 0.789062 14.808594 5.03125 19.054688 10.269531 19.054688 C 15.507812 19.054688 19.75 14.808594 19.75 9.570312 C 19.75 4.335938 15.507812 0.0898438 10.269531 0.0898438 Z M 10.269531 0.0898438 " clip-rule="nonzero"/></clipPath><clipPath id="c742bec0d7"><rect x="0" width="20" y="0" height="20"/></clipPath><clipPath id="5df8753dd2"><rect x="0" width="185" y="0" height="195"/></clipPath><clipPath id="0a85757cd4"><rect x="0" width="300" y="0" height="53"/></clipPath></defs><rect x="-37.5" width="450" fill="#ffffff" y="-37.499999" height="449.999989" fill-opacity="1"/><g clip-path="url(#29821f94f6)"><g clip-path="url(#743f28878a)"><g transform="matrix(1, 0, 0, 1, 11, 192)"><g clip-path="url(#2f77e09a19)"><g clip-path="url(#c2754dc81f)"><g clip-path="url(#9b914a4597)"><path fill="#ffffff" d="M 0.0195312 0.324219 L 7.375 0.324219 L 7.375 7.679688 L 0.0195312 7.679688 Z M 0.0195312 0.324219 " fill-opacity="1" fill-rule="nonzero"/></g></g></g></g></g></g><g clip-path="url(#3676c56546)"><g clip-path="url(#28896d3a74)"><g transform="matrix(1, 0, 0, 1, 21, 201)"><g clip-path="url(#34e5c307df)"><g clip-path="url(#1124bc4625)"><g clip-path="url(#8a14feabd0)"><path fill="#ffffff" d="M 0.226562 0.566406 L 7.582031 0.566406 L 7.582031 7.921875 L 0.226562 7.921875 Z M 0.226562 0.566406 " fill-opacity="1" fill-rule="nonzero"/></g></g></g></g></g></g><g transform="matrix(1, 0, 0, 1, 95, 50)"><g clip-path="url(#5df8753dd2)"><g clip-path="url(#6d2482dfd4)"><path fill="#cc3d40" d="M 184.238281 49.707031 L 184.238281 122.625 C 184.238281 155.222656 147.910156 174.664062 120.789062 156.582031 L 150.867188 136.527344 L 150.867188 51.332031 C 150.867188 38.351562 136.402344 30.609375 125.601562 37.808594 L 94.277344 58.695312 C 76.0625 70.839844 52.335938 70.839844 34.121094 58.695312 L 108.445312 9.140625 C 140.84375 -12.457031 184.238281 10.765625 184.238281 49.707031 Z M 184.238281 49.707031 " fill-opacity="1" fill-rule="nonzero"/></g><g clip-path="url(#8cc0f66c1f)"><path fill="#868585" d="M 34.121094 58.691406 L 34.121094 143.890625 C 34.121094 156.867188 48.585938 164.613281 59.386719 157.410156 L 90.710938 136.523438 C 108.929688 124.382812 132.660156 124.382812 150.871094 136.523438 L 76.539062 186.074219 C 44.140625 207.675781 0.75 184.449219 0.75 145.515625 L 0.75 72.597656 C 0.75 39.996094 37.078125 20.558594 64.199219 38.640625 Z M 34.121094 58.691406 " fill-opacity="1" fill-rule="nonzero"/></g><g clip-path="url(#eb396b9b24)"><g clip-path="url(#3ae0998f84)"><g transform="matrix(1, 0, 0, 1, 128, 5)"><g clip-path="url(#cd80e536f1)"><g clip-path="url(#c5a22bc9f4)"><g clip-path="url(#af8a615c0f)"><path fill="#ffffff" d="M 0.804688 0.453125 L 19.765625 0.453125 L 19.765625 19.417969 L 0.804688 19.417969 Z M 0.804688 0.453125 " fill-opacity="1" fill-rule="nonzero"/></g></g></g></g></g></g><g clip-path="url(#3643b1685b)"><g clip-path="url(#4e64c842df)"><g transform="matrix(1, 0, 0, 1, 152, 25)"><g clip-path="url(#76236226c9)"><g clip-path="url(#e07e25c4ca)"><g clip-path="url(#d8e996f79f)"><path fill="#ffffff" d="M 0.871094 0.753906 L 19.835938 0.753906 L 19.835938 19.714844 L 0.871094 19.714844 Z M 0.871094 0.753906 " fill-opacity="1" fill-rule="nonzero"/></g></g></g></g></g></g><g clip-path="url(#0410155182)"><g clip-path="url(#906e9d1c97)"><g transform="matrix(1, 0, 0, 1, 8, 145)"><g clip-path="url(#ddee4db1d9)"><g clip-path="url(#bc008d3adc)"><g clip-path="url(#76c1bd682d)"><path fill="#ffffff" d="M 0.476562 0.257812 L 19.441406 0.257812 L 19.441406 19.222656 L 0.476562 19.222656 Z M 0.476562 0.257812 " fill-opacity="1" fill-rule="nonzero"/></g></g></g></g></g></g><g clip-path="url(#9dd2d2c735)"><g clip-path="url(#15fee0c5b9)"><g transform="matrix(1, 0, 0, 1, 34, 169)"><g clip-path="url(#c742bec0d7)"><g clip-path="url(#3b69b4a7be)"><g clip-path="url(#454348a7d2)"><path fill="#ffffff" d="M 0.789062 0.0898438 L 19.75 0.0898438 L 19.75 19.054688 L 0.789062 19.054688 Z M 0.789062 0.0898438 " fill-opacity="1" fill-rule="nonzero"/></g></g></g></g></g></g></g></g><g transform="matrix(1, 0, 0, 1, 40, 259)"><g clip-path="url(#0a85757cd4)"><g fill="#cc3d40" fill-opacity="1"><g transform="translate(0.716997, 41.077069)"><g><path d="M 4.03125 0 C 3.71875 0 3.453125 -0.0976562 3.234375 -0.296875 C 3.015625 -0.492188 2.90625 -0.753906 2.90625 -1.078125 L 2.90625 -28.859375 C 2.90625 -29.179688 3.015625 -29.445312 3.234375 -29.65625 C 3.453125 -29.875 3.71875 -29.984375 4.03125 -29.984375 L 8.859375 -29.984375 C 9.578125 -29.984375 10.09375 -29.664062 10.40625 -29.03125 L 17.78125 -15.84375 L 25.1875 -29.03125 C 25.5 -29.664062 26.007812 -29.984375 26.71875 -29.984375 L 31.5625 -29.984375 C 31.875 -29.984375 32.132812 -29.875 32.34375 -29.65625 C 32.5625 -29.445312 32.671875 -29.179688 32.671875 -28.859375 L 32.671875 -1.078125 C 32.671875 -0.753906 32.5625 -0.492188 32.34375 -0.296875 C 32.132812 -0.0976562 31.875 0 31.5625 0 L 26.125 0 C 25.84375 0 25.59375 -0.101562 25.375 -0.3125 C 25.15625 -0.53125 25.046875 -0.785156 25.046875 -1.078125 L 25.046875 -16.65625 L 20.421875 -8.1875 C 20.054688 -7.519531 19.5625 -7.1875 18.9375 -7.1875 L 16.625 -7.1875 C 16.050781 -7.1875 15.550781 -7.519531 15.125 -8.1875 L 10.53125 -16.65625 L 10.53125 -1.078125 C 10.53125 -0.753906 10.421875 -0.492188 10.203125 -0.296875 C 9.992188 -0.0976562 9.734375 0 9.421875 0 Z M 4.03125 0 "/></g></g></g><g fill="#cc3d40" fill-opacity="1"><g transform="translate(41.660511, 41.077069)"><g><path d="M 3.984375 0 C 3.703125 0 3.453125 -0.101562 3.234375 -0.3125 C 3.015625 -0.53125 2.90625 -0.785156 2.90625 -1.078125 L 2.90625 -28.90625 C 2.90625 -29.21875 3.015625 -29.472656 3.234375 -29.671875 C 3.453125 -29.878906 3.703125 -29.984375 3.984375 -29.984375 L 10.109375 -29.984375 C 10.421875 -29.984375 10.675781 -29.878906 10.875 -29.671875 C 11.070312 -29.472656 11.171875 -29.21875 11.171875 -28.90625 L 11.171875 -1.078125 C 11.171875 -0.785156 11.070312 -0.53125 10.875 -0.3125 C 10.675781 -0.101562 10.421875 0 10.109375 0 Z M 3.984375 0 "/></g></g></g><g fill="#cc3d40" fill-opacity="1"><g transform="translate(61.104734, 41.077069)"><g><path d="M 10.625 0 C 10.3125 0 10.046875 -0.0976562 9.828125 -0.296875 C 9.617188 -0.492188 9.515625 -0.753906 9.515625 -1.078125 L 9.515625 -23 L 1.96875 -23 C 1.65625 -23 1.390625 -23.097656 1.171875 -23.296875 C 0.960938 -23.492188 0.859375 -23.75 0.859375 -24.0625 L 0.859375 -28.859375 C 0.859375 -29.179688 0.960938 -29.445312 1.171875 -29.65625 C 1.390625 -29.875 1.65625 -29.984375 1.96875 -29.984375 L 25.21875 -29.984375 C 25.539062 -29.984375 25.804688 -29.875 26.015625 -29.65625 C 26.234375 -29.445312 26.34375 -29.179688 26.34375 -28.859375 L 26.34375 -24.0625 C 26.34375 -23.75 26.234375 -23.492188 26.015625 -23.296875 C 25.804688 -23.097656 25.539062 -23 25.21875 -23 L 17.6875 -23 L 17.6875 -1.078125 C 17.6875 -0.753906 17.578125 -0.492188 17.359375 -0.296875 C 17.148438 -0.0976562 16.890625 0 16.578125 0 Z M 10.625 0 "/></g></g></g><g fill="#cc3d40" fill-opacity="1"><g transform="translate(93.655967, 41.077069)"><g><path d="M 14.265625 0.421875 C 11.492188 0.421875 9.132812 0.0234375 7.1875 -0.765625 C 5.25 -1.566406 3.78125 -2.625 2.78125 -3.9375 C 1.78125 -5.25 1.253906 -6.675781 1.203125 -8.21875 C 1.203125 -8.476562 1.289062 -8.691406 1.46875 -8.859375 C 1.65625 -9.035156 1.878906 -9.125 2.140625 -9.125 L 7.84375 -9.125 C 8.175781 -9.125 8.453125 -9.066406 8.671875 -8.953125 C 8.890625 -8.835938 9.125 -8.632812 9.375 -8.34375 C 9.75 -7.664062 10.328125 -7.101562 11.109375 -6.65625 C 11.898438 -6.21875 12.953125 -6 14.265625 -6 C 15.804688 -6 16.988281 -6.234375 17.8125 -6.703125 C 18.644531 -7.171875 19.0625 -7.820312 19.0625 -8.65625 C 19.0625 -9.25 18.847656 -9.738281 18.421875 -10.125 C 17.992188 -10.507812 17.304688 -10.851562 16.359375 -11.15625 C 15.421875 -11.457031 14.066406 -11.789062 12.296875 -12.15625 C 8.835938 -12.84375 6.25 -13.882812 4.53125 -15.28125 C 2.820312 -16.6875 1.96875 -18.6875 1.96875 -21.28125 C 1.96875 -23.050781 2.457031 -24.628906 3.4375 -26.015625 C 4.425781 -27.398438 5.828125 -28.476562 7.640625 -29.25 C 9.453125 -30.019531 11.5625 -30.40625 13.96875 -30.40625 C 16.476562 -30.40625 18.648438 -29.96875 20.484375 -29.09375 C 22.328125 -28.226562 23.738281 -27.144531 24.71875 -25.84375 C 25.707031 -24.539062 26.234375 -23.265625 26.296875 -22.015625 C 26.296875 -21.753906 26.207031 -21.53125 26.03125 -21.34375 C 25.863281 -21.164062 25.648438 -21.078125 25.390625 -21.078125 L 19.40625 -21.078125 C 18.769531 -21.078125 18.28125 -21.332031 17.9375 -21.84375 C 17.769531 -22.4375 17.328125 -22.941406 16.609375 -23.359375 C 15.898438 -23.773438 15.019531 -23.984375 13.96875 -23.984375 C 12.757812 -23.984375 11.828125 -23.769531 11.171875 -23.34375 C 10.515625 -22.914062 10.1875 -22.285156 10.1875 -21.453125 C 10.1875 -20.628906 10.613281 -19.976562 11.46875 -19.5 C 12.332031 -19.03125 13.9375 -18.554688 16.28125 -18.078125 C 18.957031 -17.585938 21.085938 -16.976562 22.671875 -16.25 C 24.253906 -15.519531 25.425781 -14.578125 26.1875 -13.421875 C 26.945312 -12.265625 27.328125 -10.800781 27.328125 -9.03125 C 27.328125 -7.09375 26.769531 -5.410156 25.65625 -3.984375 C 24.539062 -2.554688 23 -1.460938 21.03125 -0.703125 C 19.0625 0.046875 16.804688 0.421875 14.265625 0.421875 Z M 14.265625 0.421875 "/></g></g></g><g fill="#cc3d40" fill-opacity="1"><g transform="translate(127.532976, 41.077069)"><g><path d="M 15.625 0.421875 C 11.570312 0.421875 8.394531 -0.5625 6.09375 -2.53125 C 3.800781 -4.5 2.65625 -7.453125 2.65625 -11.390625 L 2.65625 -28.859375 C 2.65625 -29.179688 2.753906 -29.445312 2.953125 -29.65625 C 3.148438 -29.875 3.40625 -29.984375 3.71875 -29.984375 L 9.59375 -29.984375 C 9.90625 -29.984375 10.164062 -29.875 10.375 -29.65625 C 10.59375 -29.445312 10.703125 -29.179688 10.703125 -28.859375 L 10.703125 -11.484375 C 10.703125 -9.710938 11.125 -8.382812 11.96875 -7.5 C 12.8125 -6.613281 14.019531 -6.171875 15.59375 -6.171875 C 17.15625 -6.171875 18.359375 -6.617188 19.203125 -7.515625 C 20.046875 -8.410156 20.46875 -9.734375 20.46875 -11.484375 L 20.46875 -28.859375 C 20.46875 -29.179688 20.570312 -29.445312 20.78125 -29.65625 C 21 -29.875 21.265625 -29.984375 21.578125 -29.984375 L 27.40625 -29.984375 C 27.71875 -29.984375 27.984375 -29.875 28.203125 -29.65625 C 28.421875 -29.445312 28.53125 -29.179688 28.53125 -28.859375 L 28.53125 -11.390625 C 28.53125 -7.453125 27.382812 -4.5 25.09375 -2.53125 C 22.8125 -0.5625 19.65625 0.421875 15.625 0.421875 Z M 15.625 0.421875 "/></g></g></g><g fill="#cc3d40" fill-opacity="1"><g transform="translate(164.065283, 41.077069)"><g><path d="M 3.984375 0 C 3.703125 0 3.453125 -0.101562 3.234375 -0.3125 C 3.015625 -0.53125 2.90625 -0.785156 2.90625 -1.078125 L 2.90625 -28.859375 C 2.90625 -29.179688 3.003906 -29.445312 3.203125 -29.65625 C 3.410156 -29.875 3.671875 -29.984375 3.984375 -29.984375 L 9.71875 -29.984375 C 10.03125 -29.984375 10.285156 -29.875 10.484375 -29.65625 C 10.691406 -29.445312 10.796875 -29.179688 10.796875 -28.859375 L 10.796875 -19.53125 L 18.375 -29.125 C 18.6875 -29.695312 19.242188 -29.984375 20.046875 -29.984375 L 26.59375 -29.984375 C 26.820312 -29.984375 27.03125 -29.890625 27.21875 -29.703125 C 27.40625 -29.515625 27.5 -29.304688 27.5 -29.078125 C 27.5 -28.847656 27.441406 -28.675781 27.328125 -28.5625 L 17.34375 -15.625 L 28.140625 -1.40625 C 28.253906 -1.289062 28.3125 -1.125 28.3125 -0.90625 C 28.3125 -0.675781 28.21875 -0.46875 28.03125 -0.28125 C 27.84375 -0.09375 27.617188 0 27.359375 0 L 20.640625 0 C 20.179688 0 19.804688 -0.09375 19.515625 -0.28125 C 19.234375 -0.46875 19.039062 -0.660156 18.9375 -0.859375 L 10.796875 -11.3125 L 10.796875 -1.078125 C 10.796875 -0.785156 10.691406 -0.53125 10.484375 -0.3125 C 10.285156 -0.101562 10.03125 0 9.71875 0 Z M 3.984375 0 "/></g></g></g><g fill="#cc3d40" fill-opacity="1"><g transform="translate(198.02795, 41.077069)"><g><path d="M 3.984375 0 C 3.703125 0 3.453125 -0.101562 3.234375 -0.3125 C 3.015625 -0.53125 2.90625 -0.785156 2.90625 -1.078125 L 2.90625 -28.859375 C 2.90625 -29.179688 3.003906 -29.445312 3.203125 -29.65625 C 3.410156 -29.875 3.671875 -29.984375 3.984375 -29.984375 L 24.203125 -29.984375 C 24.515625 -29.984375 24.773438 -29.875 24.984375 -29.65625 C 25.203125 -29.445312 25.3125 -29.179688 25.3125 -28.859375 L 25.3125 -24.625 C 25.3125 -24.3125 25.203125 -24.054688 24.984375 -23.859375 C 24.773438 -23.660156 24.515625 -23.5625 24.203125 -23.5625 L 10.671875 -23.5625 L 10.671875 -18.109375 L 23.25 -18.109375 C 23.570312 -18.109375 23.835938 -18 24.046875 -17.78125 C 24.265625 -17.570312 24.375 -17.3125 24.375 -17 L 24.375 -13.109375 C 24.375 -12.796875 24.265625 -12.53125 24.046875 -12.3125 C 23.835938 -12.09375 23.570312 -11.984375 23.25 -11.984375 L 10.671875 -11.984375 L 10.671875 -6.421875 L 24.546875 -6.421875 C 24.859375 -6.421875 25.117188 -6.3125 25.328125 -6.09375 C 25.546875 -5.882812 25.65625 -5.625 25.65625 -5.3125 L 25.65625 -1.078125 C 25.65625 -0.753906 25.546875 -0.492188 25.328125 -0.296875 C 25.117188 -0.0976562 24.859375 0 24.546875 0 Z M 3.984375 0 "/></g></g></g><g fill="#cc3d40" fill-opacity="1"><g transform="translate(230.87711, 41.077069)"><g><path d="M 10.625 0 C 10.3125 0 10.046875 -0.0976562 9.828125 -0.296875 C 9.617188 -0.492188 9.515625 -0.753906 9.515625 -1.078125 L 9.515625 -23 L 1.96875 -23 C 1.65625 -23 1.390625 -23.097656 1.171875 -23.296875 C 0.960938 -23.492188 0.859375 -23.75 0.859375 -24.0625 L 0.859375 -28.859375 C 0.859375 -29.179688 0.960938 -29.445312 1.171875 -29.65625 C 1.390625 -29.875 1.65625 -29.984375 1.96875 -29.984375 L 25.21875 -29.984375 C 25.539062 -29.984375 25.804688 -29.875 26.015625 -29.65625 C 26.234375 -29.445312 26.34375 -29.179688 26.34375 -28.859375 L 26.34375 -24.0625 C 26.34375 -23.75 26.234375 -23.492188 26.015625 -23.296875 C 25.804688 -23.097656 25.539062 -23 25.21875 -23 L 17.6875 -23 L 17.6875 -1.078125 C 17.6875 -0.753906 17.578125 -0.492188 17.359375 -0.296875 C 17.148438 -0.0976562 16.890625 0 16.578125 0 Z M 10.625 0 "/></g></g></g><g fill="#cc3d40" fill-opacity="1"><g transform="translate(263.426469, 41.077069)"><g><path d="M 1.234375 0 C 1.015625 0 0.8125 -0.09375 0.625 -0.28125 C 0.4375 -0.46875 0.34375 -0.675781 0.34375 -0.90625 C 0.34375 -1.070312 0.359375 -1.195312 0.390625 -1.28125 L 10.359375 -28.734375 C 10.648438 -29.566406 11.222656 -29.984375 12.078125 -29.984375 L 18.765625 -29.984375 C 19.617188 -29.984375 20.1875 -29.566406 20.46875 -28.734375 L 30.453125 -1.28125 C 30.484375 -1.195312 30.5 -1.070312 30.5 -0.90625 C 30.5 -0.675781 30.40625 -0.46875 30.21875 -0.28125 C 30.03125 -0.09375 29.820312 0 29.59375 0 L 24.03125 0 C 23.34375 0 22.859375 -0.3125 22.578125 -0.9375 L 21.03125 -5.09375 L 9.8125 -5.09375 L 8.265625 -0.9375 C 7.984375 -0.3125 7.5 0 6.8125 0 Z M 11.609375 -11.515625 L 19.234375 -11.515625 L 15.421875 -22.4375 Z M 11.609375 -11.515625 "/></g></g></g></g></g></svg>